<?xml version="1.0" encoding="UTF-8" standalone="no"?>
<svg
   height="128"
   width="128"
   version="1.1"
   id="svg24"
   sodipodi:docname="icon.svg"
   xml:space="preserve"
   inkscape:version="1.2.1 (9c6d41e410, 2022-07-14)"
   xmlns:inkscape="http://www.inkscape.org/namespaces/inkscape"
   xmlns:sodipodi="http://sodipodi.sourceforge.net/DTD/sodipodi-0.dtd"
   xmlns="http://www.w3.org/2000/svg"
   xmlns:svg="http://www.w3.org/2000/svg"><defs
     id="defs28" /><sodipodi:namedview
     id="namedview26"
     pagecolor="#ffffff"
     bordercolor="#000000"
     borderopacity="0.25"
     inkscape:showpageshadow="2"
     inkscape:pageopacity="0.0"
     inkscape:pagecheckerboard="0"
     inkscape:deskcolor="#d1d1d1"
     showgrid="false"
     inkscape:zoom="4"
     inkscape:cx="-2.625"
     inkscape:cy="48.5"
     inkscape:window-width="1920"
     inkscape:window-height="1017"
     inkscape:window-x="-8"
     inkscape:window-y="-8"
     inkscape:window-maximized="1"
     inkscape:current-layer="layer2" /><rect
     x="2"
     y="2"
     width="124"
     height="124"
     rx="14"
     fill="#363d52"
     stroke="#212532"
     stroke-width="4"
     id="rect2"
     style="display:inline" /><g
     transform="matrix(0.101,0,0,0.101,5.7461338,2.6875914)"
     id="g22"
     style="display:inline"><g
       fill="#ffffff"
       id="g14"><path
         d="m 105,673 v 33 q 407,354 814,0 v -33 z"
         id="path4" /><path
         fill="#478cbf"
         d="m 105,673 152,14 q 12,1 15,14 l 4,67 132,10 8,-61 q 2,-11 15,-15 h 162 q 13,4 15,15 l 8,61 132,-10 4,-67 q 3,-13 15,-14 L 919,673 V 427 q 30,-39 56,-81 -35,-59 -83,-108 -43,20 -82,47 -40,-37 -88,-64 7,-51 8,-102 -59,-28 -123,-42 -26,43 -46,89 -49,-7 -98,0 -20,-46 -46,-89 -64,14 -123,42 1,51 8,102 -48,27 -88,64 -39,-27 -82,-47 -48,49 -83,108 26,42 56,81 z m 0,33 v 39 c 0,276 813,276 813,0 v -39 l -134,12 -5,69 q -2,10 -14,13 l -162,11 q -12,0 -16,-11 L 577,735 H 447 l -10,65 q -4,11 -16,11 L 259,800 q -12,-3 -14,-13 l -5,-69 z"
         id="path6" /><path
         d="m 483,600 c 3,34 55,34 58,0 v -86 c -3,-34 -55,-34 -58,0 z"
         id="path8" /><circle
         cx="725"
         cy="526"
         r="90"
         id="circle10" /><circle
         cx="299"
         cy="526"
         r="90"
         id="circle12" /></g><g
       fill="#414042"
       id="g20"><circle
         cx="307"
         cy="532"
         r="60"
         id="circle16" /><circle
         cx="717"
         cy="532"
         r="60"
         id="circle18" /></g></g><g
     inkscape:groupmode="layer"
     id="layer2"
     inkscape:label="hammer"
     transform="matrix(-0.00874654,0,0,0.01315832,139.31692,96.635084)"
     style="display:inline;fill:#ffffff;fill-opacity:1"><path
       id="hammer"
       d="M 5214.4866,-990.97861 9013.3378,1462.8318 8023.4391,2125.7215 4415.8849,-456.19185 Z m -1084.8701,342.98518 798.6016,-534.68597 c 0,0 -405.6222,-207.2223 -368.2959,-336.6355 37.3263,-129.5139 121.7619,-312.446 709.0487,-474.8172 587.4372,-162.3712 1135.2906,-177.0864 1135.2906,-177.0864 l 19.7167,-177.1872 c 0,0 -1349.9167,-136.6699 -2063.0291,32.9581 -713.1124,169.7287 -1519.691,808.3282 -1519.691,808.3282 0,0 140.726,308.8177 -100.3897,470.2818 -240.9651,161.36326 -565.0114,-24.6933 -565.0114,-24.6933 l -369.6505,314.26024 932.7053,624.58981 468.3845,-248.04188 c 0,0 -221.5494,-222.44146 -2.5586,-355.5838 471.3947,-286.44247 924.8788,78.3131 924.8788,78.3131 z"
       style="clip-rule:evenodd;display:inline;fill:#ffffff;fill-opacity:1;fill-rule:evenodd;stroke:#414042;stroke-width:123.165;stroke-linejoin:round;stroke-miterlimit:2;stroke-opacity:1" /></g></svg>
